<?xml version="1.0" encoding="UTF-8"?>
<!DOCTYPE svg PUBLIC "-//W3C//DTD SVG 1.1//EN" "http://www.w3.org/Graphics/SVG/1.1/DTD/svg11.dtd">
<svg version="1.1" id="Layer_1" xmlns="http://www.w3.org/2000/svg" xmlns:xlink="http://www.w3.org/1999/xlink" x="0px" y="0px" width="32px" height="32px" viewBox="0 0 32 32" enable-background="new 0 0 32 32" xml:space="preserve">
  <g id="main">
    <g id="icon">
      <path d="M14.23,0.6387L13.49,0.7518L12.77,0.9359L12.08,1.187L11.43,1.502L10.81,1.876L10.23,2.307L9.697,2.789L9.213,3.32L8.781,3.895L8.405,4.512L8.089,5.165L7.837,5.852L7.652,6.568L7.539,7.311L7.5,8.075L7.539,8.839L7.652,9.582L7.837,10.3L8.089,10.98L8.405,11.64L8.781,12.25L9.213,12.83L9.697,13.36L10.23,13.84L10.81,14.27L11.43,14.65L12.08,14.96L12.77,15.21L13.49,15.4L14.23,15.51L15,15.55L15.77,15.51L16.51,15.4L17.23,15.21L17.92,14.96L18.57,14.65L19.19,14.27L19.77,13.84L20.3,13.36L20.79,12.83L21.22,12.25L21.59,11.64L21.91,10.98L22.16,10.3L22.35,9.581L22.46,8.839L22.5,8.075L22.46,7.311L22.35,6.568L22.16,5.852L21.91,5.165L21.59,4.512L21.22,3.895L20.79,3.32L20.3,2.789L19.77,2.307L19.19,1.876L18.57,1.502L17.92,1.187L17.23,0.9359L16.51,0.7518L15.77,0.6387L15,0.6zM13.8,15.68L12.58,15.92L11.4,16.31L10.26,16.84L9.165,17.49L8.13,18.25L7.158,19.13L6.258,20.09L5.437,21.15L4.701,22.27L4.059,23.46L3.517,24.71L3.083,25.99L2.764,27.31L2.567,28.65L2.5,30L17.4,30L17.19,29.74L16.61,28.82L16.14,27.82L15.79,26.76L15.57,25.65L15.5,24.5L15.55,23.58L15.68,22.69L15.91,21.83L16.21,21L16.59,20.21L17.04,19.47L17.56,18.78L18.14,18.14L18.78,17.56L19.47,17.04L19.81,16.83L18.69,16.31L17.51,15.92L16.29,15.68L15.05,15.6zz" fill="#FFFFFF"/>
      <path d="M14.97,0.0007813L14.2,0.03926L14.17,0.04082L14.14,0.04531L13.4,0.1586L13.37,0.1631L13.34,0.1707L12.62,0.3547L12.59,0.3621L12.56,0.3723L11.88,0.6236L11.85,0.6338L11.82,0.6465L11.17,0.9611L11.14,0.9738L11.11,0.9889L10.5,1.363L10.47,1.378L10.45,1.395L9.871,1.826L9.848,1.843L9.827,1.862L9.294,2.344L9.273,2.364L9.254,2.385L8.769,2.916L8.75,2.937L8.733,2.96L8.301,3.535L8.284,3.558L8.269,3.583L7.893,4.199L7.878,4.224L7.865,4.251L7.549,4.904L7.536,4.931L7.526,4.958L7.274,5.645L7.264,5.673L7.256,5.702L7.071,6.418L7.064,6.448L7.059,6.478L6.946,7.22L6.941,7.25L6.939,7.28L6.901,8.045L6.899,8.075L6.901,8.105L6.939,8.87L6.941,8.9L6.946,8.93L7.059,9.672L7.064,9.702L7.071,9.732L7.256,10.45L7.264,10.48L7.274,10.5L7.526,11.19L7.536,11.22L7.549,11.25L7.865,11.9L7.878,11.93L7.893,11.95L8.269,12.57L8.284,12.59L8.301,12.61L8.733,13.19L8.75,13.21L8.769,13.23L9.254,13.77L9.273,13.79L9.294,13.81L9.827,14.29L9.848,14.31L9.871,14.32L10.45,14.75L10.47,14.77L10.5,14.79L11.11,15.16L11.14,15.18L11.17,15.19L11.82,15.5L11.85,15.52L11.87,15.52L11.21,15.74L11.18,15.75L11.15,15.77L10.01,16.29L9.978,16.3L9.95,16.32L8.858,16.97L8.832,16.99L8.808,17L7.772,17.77L7.75,17.79L7.729,17.81L6.757,18.68L6.737,18.7L6.719,18.72L5.819,19.69L5.801,19.7L5.785,19.72L4.964,20.78L4.948,20.8L4.934,20.82L4.199,21.94L4.185,21.97L4.173,21.99L3.531,23.18L3.519,23.2L3.509,23.22L2.967,24.47L2.957,24.49L2.949,24.51L2.515,25.8L2.506,25.82L2.5,25.85L2.181,27.17L2.174,27.2L2.17,27.22L1.974,28.56L1.969,28.59L1.968,28.62L1.901,29.97L1.869,30.6L2.5,30.6L17.89,30.6L17.88,30.59L17.19,29.74L16.97,29.4L3.13,29.4L3.165,28.71L3.354,27.42L3.66,26.16L4.078,24.92L4.598,23.73L5.217,22.58L5.926,21.49L6.716,20.48L7.58,19.55L8.51,18.72L9.498,17.99L10.54,17.37L11.62,16.87L12.73,16.5L13.88,16.28L15.05,16.2L16.22,16.28L17.36,16.5L18.47,16.87L19.23,17.22L19.47,17.04L20.21,16.59L20.42,16.49L20.13,16.32L20.11,16.3L20.08,16.29L18.94,15.77L18.91,15.75L18.88,15.74L18.17,15.51L18.18,15.5L18.83,15.19L18.86,15.18L18.89,15.16L19.5,14.79L19.53,14.77L19.55,14.75L20.13,14.32L20.15,14.31L20.17,14.29L20.71,13.81L20.73,13.79L20.75,13.76L21.23,13.23L21.25,13.21L21.27,13.19L21.7,12.61L21.72,12.59L21.73,12.57L22.11,11.95L22.12,11.93L22.13,11.9L22.45,11.25L22.46,11.22L22.47,11.19L22.73,10.5L22.74,10.48L22.74,10.45L22.93,9.731L22.94,9.702L22.94,9.672L23.05,8.93L23.06,8.9L23.06,8.87L23.1,8.105L23.1,8.075L23.1,8.045L23.06,7.28L23.06,7.25L23.05,7.22L22.94,6.478L22.94,6.448L22.93,6.418L22.74,5.702L22.74,5.673L22.73,5.645L22.47,4.958L22.46,4.931L22.45,4.904L22.13,4.251L22.12,4.224L22.11,4.199L21.73,3.583L21.72,3.558L21.7,3.535L21.27,2.96L21.25,2.937L21.23,2.916L20.75,2.385L20.73,2.364L20.71,2.344L20.17,1.862L20.15,1.843L20.13,1.826L19.55,1.395L19.53,1.378L19.5,1.363L18.89,0.9889L18.86,0.9738L18.83,0.9611L18.18,0.6465L18.15,0.6338L18.12,0.6236L17.44,0.3723L17.41,0.3621L17.38,0.3547L16.66,0.1707L16.63,0.1631L16.6,0.1586L15.86,0.04531L15.83,0.04082L15.8,0.03926L15.03,0.0007813L15.02,0L14.98,0zM15.71,1.236L16.39,1.34L17.05,1.51L17.68,1.74L18.29,2.031L18.86,2.374L19.39,2.771L19.88,3.215L20.32,3.703L20.72,4.234L21.07,4.799L21.36,5.401L21.59,6.031L21.76,6.689L21.86,7.372L21.9,8.075L21.86,8.778L21.76,9.461L21.59,10.12L21.36,10.75L21.07,11.35L20.72,11.92L20.32,12.45L19.88,12.93L19.39,13.38L18.86,13.78L18.29,14.12L17.69,14.41L17.05,14.64L16.39,14.81L15.71,14.91L15,14.95L14.29,14.91L13.61,14.81L12.95,14.64L12.32,14.41L11.71,14.12L11.14,13.78L10.61,13.38L10.12,12.93L9.675,12.45L9.277,11.92L8.933,11.35L8.642,10.75L8.411,10.12L8.241,9.461L8.136,8.778L8.101,8.075L8.136,7.372L8.241,6.689L8.411,6.031L8.642,5.401L8.933,4.799L9.277,4.234L9.675,3.703L10.12,3.215L10.61,2.771L11.14,2.374L11.71,2.031L12.32,1.74L12.95,1.51L13.61,1.34L14.29,1.236L15,1.201zz" fill="#383838"/>
      <path d="M14.25,20.64L13.5,30L16.5,30L16.36,28.31L16.14,27.82L15.79,26.76L15.57,25.65L15.5,24.5L15.55,23.58L15.68,22.69L15.86,22.01L15.75,20.67L16.5,18L13.5,18zz" fill="#78797A"/>
    </g>
    <g id="overlay">
      <path d="M19.55,19.55c2.734,-2.734,7.166,-2.734,9.899,0c2.734,2.734,2.734,7.166,0,9.899c-2.734,2.734,-7.166,2.734,-9.899,0C16.817,26.716,16.817,22.284,19.55,19.55z" fill="#FFFFFF" stroke="#228BCB" stroke-width="1" stroke-miterlimit="10"/>
      <path d="M27,27.5h-5.5v-5.5M27.691,21.309l-5.901,5.901" fill="none" stroke="#228BCB" stroke-width="1" stroke-miterlimit="10"/>
    </g>
  </g>
</svg>
