<?xml version="1.0" encoding="UTF-8"?>
<!DOCTYPE svg PUBLIC "-//W3C//DTD SVG 1.1//EN" "http://www.w3.org/Graphics/SVG/1.1/DTD/svg11.dtd">
<svg version="1.1" id="Layer_1" xmlns="http://www.w3.org/2000/svg" xmlns:xlink="http://www.w3.org/1999/xlink" x="0px" y="0px" width="32px" height="32px" viewBox="0 0 32 32" enable-background="new 0 0 32 32" xml:space="preserve">
  <g id="main">
    <g id="icon">
      <path d="M10.32,5.532L9.699,5.627L9.104,5.78L8.534,5.989L7.991,6.252L7.479,6.564L7,6.922L6.559,7.324L6.158,7.767L5.801,8.246L5.49,8.76L5.228,9.304L5.019,9.877L4.866,10.47L4.772,11.09L4.74,11.73L4.772,12.37L4.866,12.98L5.019,13.58L5.228,14.15L5.49,14.7L5.801,15.21L6.158,15.69L6.559,16.13L7,16.54L7.479,16.89L7.991,17.21L8.534,17.47L9.104,17.68L9.699,17.83L10.32,17.93L10.95,17.96L11.59,17.93L12.2,17.83L12.8,17.68L13.37,17.47L13.91,17.21L14.42,16.89L14.9,16.54L15.34,16.13L15.74,15.69L16.1,15.21L16.41,14.7L16.67,14.15L16.88,13.58L17.04,12.98L17.13,12.37L17.16,11.73L17.13,11.09L17.04,10.47L16.88,9.877L16.67,9.304L16.41,8.76L16.1,8.246L15.74,7.767L15.34,7.324L14.9,6.922L14.42,6.564L13.91,6.252L13.37,5.989L12.8,5.78L12.2,5.627L11.59,5.532L10.95,5.5zM9.959,18.07L8.949,18.27L7.969,18.59L7.023,19.03L6.119,19.57L5.262,20.21L4.457,20.94L3.712,21.74L3.032,22.62L2.423,23.56L1.891,24.55L1.442,25.59L1.083,26.66L0.8186,27.76L0.6557,28.87L0.6,30L17.4,30L17.19,29.74L16.61,28.82L16.14,27.82L15.79,26.76L15.57,25.65L15.5,24.5L15.55,23.58L15.68,22.69L15.91,21.83L16.21,21L16.59,20.21L16.62,20.16L15.84,19.57L14.95,19.03L14.01,18.59L13.03,18.27L12.02,18.07L10.99,18zz" fill="#FFFFFF"/>
      <path d="M10.92,4.901L10.29,4.933L10.26,4.934L10.23,4.939L9.609,5.033L9.579,5.038L9.549,5.046L8.954,5.199L8.925,5.206L8.897,5.217L8.327,5.426L8.299,5.437L8.272,5.449L7.729,5.712L7.703,5.724L7.678,5.739L7.166,6.052L7.142,6.067L7.119,6.084L6.64,6.442L6.617,6.46L6.596,6.479L6.155,6.881L6.134,6.9L6.115,6.922L5.714,7.364L5.695,7.385L5.677,7.408L5.32,7.888L5.303,7.911L5.288,7.936L4.977,8.449L4.962,8.474L4.949,8.5L4.687,9.045L4.675,9.071L4.664,9.099L4.456,9.671L4.446,9.699L4.438,9.728L4.285,10.32L4.278,10.35L4.273,10.38L4.179,11L4.174,11.03L4.173,11.06L4.141,11.7L4.139,11.73L4.141,11.76L4.173,12.4L4.174,12.43L4.179,12.46L4.273,13.07L4.278,13.1L4.285,13.13L4.438,13.73L4.446,13.76L4.456,13.79L4.664,14.36L4.675,14.39L4.687,14.41L4.949,14.96L4.962,14.98L4.977,15.01L5.288,15.52L5.303,15.55L5.32,15.57L5.677,16.05L5.695,16.07L5.714,16.09L6.115,16.54L6.134,16.56L6.155,16.58L6.596,16.98L6.617,17L6.64,17.02L7.119,17.37L7.142,17.39L7.166,17.41L7.678,17.72L7.703,17.73L7.729,17.75L8.09,17.92L7.781,18.02L7.748,18.03L7.717,18.05L6.772,18.48L6.742,18.5L6.715,18.51L5.81,19.06L5.785,19.07L5.76,19.09L4.903,19.73L4.88,19.75L4.859,19.77L4.055,20.49L4.035,20.51L4.017,20.53L3.271,21.34L3.254,21.36L3.238,21.38L2.558,22.25L2.542,22.27L2.529,22.3L1.92,23.23L1.906,23.25L1.894,23.28L1.362,24.27L1.35,24.29L1.34,24.31L0.8918,25.35L0.8816,25.37L0.8734,25.4L0.5141,26.47L0.5057,26.49L0.4994,26.52L0.2352,27.62L0.2289,27.64L0.2248,27.67L0.06191,28.79L0.05781,28.82L0.05645,28.84L0.0007813,29.97L-0,29.99L0,30.6L0.6,30.6L17.89,30.6L17.88,30.59L17.19,29.74L16.97,29.4L1.23,29.4L1.254,28.93L1.408,27.87L1.66,26.83L2.003,25.8L2.432,24.81L2.939,23.87L3.521,22.97L4.17,22.13L4.879,21.37L5.643,20.68L6.454,20.07L7.305,19.56L8.19,19.15L9.103,18.85L10.04,18.66L10.99,18.6L11.94,18.66L12.88,18.85L13.78,19.15L14.66,19.56L15.51,20.07L16.31,20.67L16.35,20.71L16.59,20.21L16.94,19.64L16.2,19.09L16.18,19.07L16.15,19.06L15.26,18.52L15.23,18.5L15.2,18.49L14.26,18.05L14.23,18.03L14.19,18.02L13.84,17.91L14.17,17.75L14.2,17.73L14.22,17.72L14.74,17.41L14.76,17.39L14.78,17.37L15.26,17.02L15.28,17L15.31,16.98L15.75,16.58L15.77,16.56L15.79,16.54L16.19,16.09L16.21,16.07L16.22,16.05L16.58,15.57L16.6,15.55L16.61,15.52L16.93,15.01L16.94,14.98L16.95,14.96L17.21,14.41L17.23,14.39L17.24,14.36L17.45,13.79L17.46,13.76L17.46,13.73L17.62,13.13L17.62,13.1L17.63,13.07L17.72,12.46L17.73,12.43L17.73,12.4L17.76,11.76L17.76,11.73L17.76,11.7L17.73,11.06L17.73,11.03L17.72,11L17.63,10.38L17.62,10.35L17.62,10.32L17.46,9.728L17.46,9.699L17.45,9.671L17.24,9.099L17.23,9.071L17.21,9.045L16.95,8.5L16.94,8.474L16.93,8.449L16.61,7.936L16.6,7.911L16.58,7.888L16.22,7.408L16.21,7.385L16.19,7.364L15.79,6.922L15.77,6.9L15.75,6.881L15.31,6.479L15.28,6.46L15.26,6.442L14.78,6.084L14.76,6.067L14.74,6.052L14.22,5.739L14.2,5.724L14.17,5.712L13.63,5.449L13.6,5.437L13.58,5.426L13,5.217L12.98,5.206L12.95,5.199L12.35,5.046L12.32,5.038L12.29,5.033L11.68,4.939L11.65,4.934L11.62,4.933L10.98,4.901L10.95,4.899zM11.53,6.13L12.08,6.215L12.62,6.354L13.13,6.543L13.62,6.78L14.09,7.06L14.52,7.386L14.92,7.75L15.28,8.148L15.6,8.583L15.88,9.046L16.12,9.537L16.31,10.05L16.45,10.59L16.53,11.15L16.56,11.73L16.53,12.31L16.45,12.87L16.31,13.4L16.12,13.92L15.88,14.41L15.6,14.87L15.28,15.31L14.92,15.71L14.52,16.07L14.09,16.4L13.62,16.68L13.13,16.92L12.62,17.1L12.08,17.24L11.53,17.33L10.95,17.36L10.38,17.33L9.82,17.24L9.283,17.1L8.769,16.92L8.277,16.68L7.817,16.4L7.382,16.07L6.984,15.71L6.623,15.31L6.299,14.88L6.017,14.41L5.782,13.92L5.593,13.4L5.455,12.86L5.37,12.31L5.341,11.73L5.37,11.15L5.455,10.59L5.593,10.05L5.782,9.537L6.017,9.047L6.299,8.582L6.623,8.147L6.984,7.749L7.382,7.386L7.817,7.06L8.277,6.78L8.768,6.543L9.283,6.354L9.82,6.215L10.38,6.13L10.95,6.101zz" fill="#228BCB"/>
      <path d="M18.2,0.5629L17.35,0.7488L16.54,1.048L15.78,1.451L15.1,1.95L14.49,2.535L13.96,3.198L13.53,3.93L14.13,4.159L14.7,4.432L15.78,5.103L16.74,5.925L17.56,6.883L18.22,7.96L18.5,8.537L18.72,9.137L18.9,9.759L19.03,10.4L19.11,11.06L19.14,11.73L19.05,12.96L19.1,12.96L19.74,12.92L20.36,12.83L20.96,12.68L21.53,12.47L22.08,12.21L22.59,11.89L23.07,11.53L23.51,11.13L23.92,10.69L24.28,10.21L24.59,9.697L24.85,9.153L25.06,8.58L25.22,7.983L25.31,7.365L25.34,6.728L25.31,6.091L25.22,5.473L25.06,4.876L24.85,4.304L24.59,3.759L24.28,3.245L23.92,2.766L23.51,2.323L23.07,1.921L22.59,1.563L22.08,1.251L21.53,0.9885L20.96,0.7791L20.36,0.6256L19.74,0.5313L19.1,0.499zM19.04,13L18.91,13.67L18.72,14.32L18.48,14.95L18.2,15.56L17.86,16.14L17.48,16.69L17.05,17.2L16.58,17.69L17.43,18.27L17.77,18.54L18.14,18.14L18.78,17.56L19.47,17.04L20.21,16.59L21,16.21L21.83,15.91L22.69,15.68L23.58,15.55L24.5,15.5L25.24,15.55L24.87,15.21L24.02,14.57L23.12,14.03L22.17,13.59L21.19,13.27L20.18,13.07L19.14,13zz" fill="#FFFFFF"/>
      <path d="M18.12,0.06895L17.19,0.2709L16.3,0.5975L15.47,1.041L14.71,1.593L14.03,2.246L13.44,2.993L12.95,3.824L12.9,3.933L13.02,3.964L13.96,4.281L14.04,4.315L14.08,4.234L14.49,3.565L14.98,2.968L15.54,2.448L16.15,2.011L16.83,1.662L17.54,1.405L18.3,1.248L19.08,1.194L19.65,1.223L20.21,1.308L20.74,1.446L21.26,1.635L21.75,1.872L22.22,2.153L22.65,2.476L23.05,2.838L23.41,3.236L23.73,3.668L24.02,4.13L24.25,4.62L24.44,5.135L24.58,5.672L24.67,6.228L24.69,6.8L24.67,7.372L24.58,7.927L24.44,8.464L24.25,8.978L24.02,9.468L23.73,9.93L23.41,10.36L23.05,10.76L22.65,11.12L22.22,11.45L21.76,11.73L21.26,11.96L20.75,12.15L20.21,12.29L19.66,12.38L19.08,12.41L18.99,12.41L18.98,12.5L18.83,13.53L18.8,13.65L18.93,13.65L19.12,13.64L20.03,13.7L20.94,13.88L21.84,14.17L22.72,14.57L23.57,15.07L24.18,15.52L24.5,15.5L25.65,15.57L26.13,15.66L25.74,15.26L24.56,14.3L23.94,13.89L23.31,13.52L22.65,13.21L21.99,12.95L22.84,12.47L23.6,11.89L24.27,11.21L24.83,10.44L25.28,9.611L25.61,8.718L25.82,7.778L25.89,6.802L25.85,6.107L25.75,5.433L25.58,4.781L25.35,4.157L25.07,3.562L24.72,3.001L24.33,2.478L23.89,1.994L23.41,1.555L22.88,1.163L22.32,0.8221L21.73,0.5354L21.1,0.3063L20.45,0.1385L19.77,0.03516L19.08,0zz" fill="#238BCB"/>
    </g>
    <g id="overlay">
      <path d="M19.55,19.55c2.734,-2.734,7.166,-2.734,9.899,0c2.734,2.734,2.734,7.166,0,9.899c-2.734,2.734,-7.166,2.734,-9.899,0C16.817,26.716,16.817,22.284,19.55,19.55z" fill="#FFFFFF" stroke="#228BCB" stroke-width="1" stroke-miterlimit="10"/>
      <path d="M27,27.5h-5.5v-5.5M27.691,21.309l-5.901,5.901" fill="none" stroke="#228BCB" stroke-width="1" stroke-miterlimit="10"/>
    </g>
  </g>
</svg>
